<?xml version="1.0" encoding="UTF-8"?>
<svg version="1.1" xmlns="http://www.w3.org/2000/svg" width="4167" height="2084">
<path d="M0 0 C1.29067383 0.5566333 1.29067383 0.5566333 2.60742188 1.12451172 C22.89992407 10.02982727 41.32569547 21.39891858 58 36 C58.54446777 36.47147461 59.08893555 36.94294922 59.64990234 37.42871094 C78.05838631 53.45438527 92.88771573 72.25549832 104 94 C104.38140137 94.74362793 104.76280273 95.48725586 105.15576172 96.25341797 C127.96926722 141.26893295 132.63645371 192.85152367 117 241 C108.89825501 265.57181599 94.81010481 286.50489116 77 305 C76.4225 305.6290625 75.845 306.258125 75.25 306.90625 C47.11496949 336.72938234 5.26471506 350.97990623 -34.5534668 354.78588867 C-52.34513201 356.6825232 -61.62556345 366.12045764 -72.5 379.5 C-73.99761249 381.33528416 -75.49756548 383.16866125 -77 385 C-77.68449219 385.8353125 -78.36898437 386.670625 -79.07421875 387.53125 C-114.3723486 428.76677322 -180.54565196 444.00018621 -232.13500977 448.25878906 C-241.85038631 448.98053649 -251.53572693 449.18555087 -261.27325439 449.33047485 C-405.70042396 449.22672035 -405.70042396 449.22672035 -547 515 C-547.85207031 515.78890625 -548.70414063 516.5778125 -549.58203125 517.390625 C-573.44249472 540.08624695 -587.86375748 573.14777048 -589 606 C-589.03996094 606.76441406 -589.07992187 607.52882813 -589.12109375 608.31640625 C-590.41020496 653.1319784 -566.69816207 697.04566747 -536.8125 729.0625 C-534.57188397 731.40624963 -532.29831952 733.71290892 -530 736 C-529.08863281 736.91136719 -528.17726563 737.82273437 -527.23828125 738.76171875 C-497.93581184 766.66257528 -456.97770931 778.91840039 -417.08203125 778.18359375 C-344.74328922 775.25069587 -277.92975541 746.29254398 -212.42773438 718.02734375 C-154.33272172 692.96753942 -101.97543032 679.8763463 -41 704 C-6.29474356 717.9697276 -6.29474356 717.9697276 3 730.75 C4.7395391 736.40350208 5.05050082 742.31538679 2.875 747.875 C-8.22669061 760.45691603 -27.54539682 763.58683061 -43.23535156 767.05712891 C-82.48350953 775.80344126 -118.18842097 794.17555155 -149 820 C-149.99 820.82886719 -150.98 821.65773438 -152 822.51171875 C-155.34646177 825.32580044 -158.67390375 828.16190604 -162 831 C-162.58894043 831.50112305 -163.17788086 832.00224609 -163.78466797 832.51855469 C-169.64791214 837.50794234 -175.49229752 842.50594711 -181.1875 847.6875 C-184.52227114 850.71712868 -187.93287639 853.60608092 -191.4375 856.4375 C-195.24087503 859.51336588 -198.90082652 862.68753166 -202.5 866 C-206.91640144 870.05983645 -211.46163522 873.89323821 -216.12890625 877.66015625 C-218.67784295 879.73745296 -221.18764666 881.8500476 -223.68701172 883.98608398 C-230.35263224 889.68159542 -237.1608934 895.16265594 -244.09619141 900.52587891 C-245.41054223 901.54358219 -246.72257756 902.56428048 -248.03271484 903.58740234 C-257.74683394 911.17338766 -267.5865683 918.4008885 -278 925 C-278.57331055 925.36512695 -279.14662109 925.73025391 -279.73730469 926.10644531 C-298.45145252 937.92869734 -318.14119833 947.60460668 -339 955 C-340.22879883 955.43650879 -340.22879883 955.43650879 -341.48242188 955.88183594 C-373.45841442 967.03533539 -407.76362652 971.2272762 -441.5 971.25 C-442.40428741 971.25067474 -443.30857483 971.25134949 -444.24026489 971.25204468 C-526.23680819 971.15537514 -600.76574727 938.10309531 -663 886 C-663.58700684 885.51208984 -664.17401367 885.02417969 -664.77880859 884.52148438 C-679.6997108 872.09370559 -694.50491053 858.85912227 -707.16796875 844.109375 C-709.15311587 841.82370454 -711.2003983 839.60298622 -713.25 837.375 C-718.83677502 831.17377426 -723.92256779 824.61821727 -729 818 C-729.48903809 817.36787598 -729.97807617 816.73575195 -730.48193359 816.08447266 C-742.7300379 800.22858526 -753.23079658 783.48002487 -763 766 C-763.62406738 764.89180908 -763.62406738 764.89180908 -764.26074219 763.76123047 C-792.23265839 713.72898861 -807.63217396 656.08782153 -810 599 C-810.03464355 598.21560547 -810.06928711 597.43121094 -810.10498047 596.62304688 C-810.27998258 592.07081804 -810.21220657 587.54812958 -810 583 C-809.95891113 582.07703125 -809.91782227 581.1540625 -809.87548828 580.203125 C-806.68990514 515.39228334 -784.23131432 455.15101317 -746 403 C-745.51595703 402.33645508 -745.03191406 401.67291016 -744.53320312 400.98925781 C-738.40817118 392.61365107 -732.22323213 384.47195174 -725 377 C-724.05229736 376.01362549 -724.05229736 376.01362549 -723.08544922 375.00732422 C-714.12198884 365.71843755 -705.10610222 356.83153181 -694.66357422 349.21484375 C-692.99218631 347.99429397 -691.34162497 346.74897191 -689.69140625 345.5 C-680.29563615 338.48802726 -670.27156677 332.629187 -660 327 C-659.33806641 326.63664551 -658.67613281 326.27329102 -657.99414062 325.89892578 C-602.11795479 295.65919723 -536.9849171 288.73299835 -474.4375 288.8125 C-473.4672287 288.81343658 -472.4969574 288.81437317 -471.49728394 288.81533813 C-433.29957112 288.89428233 -395.33891722 292.00390658 -357.5546875 297.66015625 C-356.63264023 297.79809601 -355.71059296 297.93603577 -354.76060486 298.07815552 C-350.41396333 298.73409127 -346.07183266 299.41044567 -341.73364258 300.12011719 C-319.70158118 303.64045315 -297.83755453 303.31287328 -278.875 289.9375 C-259.16405211 274.2560037 -248.10426469 248.77763195 -245.2421875 224.0703125 C-244.84084592 218.47203686 -244.79122354 212.86044359 -244.75 207.25 C-244.74049316 206.21536621 -244.73098633 205.18073242 -244.72119141 204.11474609 C-244.74742135 197.82441643 -245.22350343 191.71230143 -245.99609375 185.48046875 C-247.12061737 176.226768 -247.33863245 167.05670303 -247.31567383 157.74145508 C-247.31250587 155.06745834 -247.3361284 152.39456521 -247.36132812 149.72070312 C-247.41893857 134.25921178 -245.70721531 119.16476994 -241.25 104.3125 C-240.99468506 103.44367188 -240.73937012 102.57484375 -240.47631836 101.6796875 C-237.98110913 93.4683315 -234.78243741 85.69530369 -231 78 C-230.45601562 76.88367188 -229.91203125 75.76734375 -229.3515625 74.6171875 C-222.53179123 61.32983971 -213.67662563 50.05593896 -203.32080078 39.37207031 C-202.21391497 38.22221851 -201.13296185 37.04747922 -200.05859375 35.8671875 C-173.66026556 7.63810277 -133.54288756 -9.29102708 -96 -15 C-95.00226562 -15.15210938 -94.00453125 -15.30421875 -92.9765625 -15.4609375 C-61.22251537 -19.16724584 -29.10944039 -12.56191144 0 0 Z M-145 75 C-145.72703125 75.57363281 -146.4540625 76.14726563 -147.203125 76.73828125 C-167.44399429 93.43301399 -180.37424205 120.58551576 -183.71875 146.3125 C-186.53900725 183.28920616 -175.95457915 216.5597178 -152 245 C-151.06027344 246.14275391 -151.06027344 246.14275391 -150.1015625 247.30859375 C-144.98818442 253.32985733 -139.22738984 258.1657998 -133 263 C-132.08476562 263.7425 -131.16953125 264.485 -130.2265625 265.25 C-104.28970499 285.71524648 -70.18178251 294.99719417 -37.46362305 291.22631836 C-15.49931822 288.3827165 4.9487694 280.28679403 22 266 C23.00804688 265.15566406 24.01609375 264.31132813 25.0546875 263.44140625 C42.30668921 248.54095475 53.34379402 228.95501007 59 207 C59.34804687 205.67548828 59.34804687 205.67548828 59.703125 204.32421875 C66.88900031 174.60549159 60.01819082 140.84093651 44.47045898 114.88623047 C24.77034671 83.04365128 -4.10308903 62.05260475 -40 52 C-40.66467285 51.80792969 -41.3293457 51.61585938 -42.01416016 51.41796875 C-77.69007586 41.54515131 -116.83735474 52.1282659 -145 75 Z " fill="#9F2529" transform="translate(2830,449)"/>
<path d="M0 0 C57.42 0 114.84 0 174 0 C183.5198976 20.15978315 193.02864329 40.31403172 202.39648438 60.54296875 C205.23311596 66.65848387 208.08527835 72.76674417 210.9375 78.875 C211.22829437 79.49783875 211.51908875 80.12067749 211.81869507 80.76239014 C213.29026412 83.91426 214.76201535 87.06604474 216.23388672 90.21777344 C218.86574346 95.85365032 221.49580879 101.49036317 224.12600708 107.12701416 C225.58393113 110.25137712 227.04197146 113.37568581 228.5 116.5 C229.08333389 117.74999974 229.66666722 118.99999974 230.25 120.25 C230.53875 120.86875 230.8275 121.4875 231.125 122.125 C247.75 157.74999999 247.75 157.74999999 248.62495422 159.62490845 C249.20843346 160.87521674 249.79191939 162.12552192 250.37541199 163.37582397 C251.83156773 166.49608156 253.2876082 169.61639283 254.7434082 172.73681641 C257.39419562 178.41832738 260.04590394 184.0994006 262.70178223 189.77853394 C270.20396712 205.82087656 277.65163837 221.88645066 285 238 C288.12641396 234.29939639 289.93282969 230.1364272 291.921875 225.765625 C292.29861359 224.94815292 292.67535217 224.13068085 293.06350708 223.28843689 C294.2965472 220.61087163 295.52316953 217.93041532 296.75 215.25 C298.04066536 212.4442472 299.33307837 209.63930373 300.62557983 206.83439636 C301.49706509 204.94288812 302.36801395 203.05113265 303.23843384 201.15913391 C307.07775176 192.81654665 310.96736035 184.49825116 314.875 176.1875 C316.09684564 173.58616809 317.31809149 170.98455503 318.5390625 168.3828125 C318.83230408 167.75798477 319.12554565 167.13315704 319.42767334 166.48939514 C325.77650402 152.95462886 332.04586354 139.38266162 338.32559204 125.81573486 C340.34166303 121.46030543 342.35819151 117.10508797 344.375 112.75 C344.78159851 111.87196716 345.18819702 110.99393433 345.6071167 110.08929443 C351.30610096 97.78517695 357.03464292 85.49541897 362.79821777 73.22143555 C369.24120739 59.50055619 375.6260185 45.75308356 382 32 C384.10538843 27.45771852 386.21138162 22.91571831 388.31829834 18.37414551 C389.16727783 16.54360241 390.01553255 14.71272322 390.86376953 12.88183594 C391.63309814 11.2232959 391.63309814 11.2232959 392.41796875 9.53125 C392.86938232 8.55736328 393.3207959 7.58347656 393.78588867 6.58007812 C394.82524465 4.37136829 395.90833522 2.18332956 397 0 C454.42 0 511.84 0 571 0 C571 177.87 571 355.74 571 539 C519.52 539 468.04 539 415 539 C414.505 390.995 414.505 390.995 414 240 C403.09365048 264.09772562 403.09365048 264.09772562 392.39627075 288.28436279 C390.52552529 292.5719001 388.64756842 296.85627767 386.76953125 301.140625 C386.38049118 302.02821503 385.99145111 302.91580505 385.59062195 303.83029175 C381.11678148 314.027643 376.59072468 324.20171108 372.0625 334.375 C365.25154088 349.67901194 358.45700039 364.99009921 351.6875 380.3125 C351.296763 381.1966156 350.906026 382.0807312 350.50344849 382.99163818 C349.38082421 385.53201776 348.25867965 388.07260863 347.13671875 390.61328125 C346.78575638 391.40756531 346.43479401 392.20184937 346.07319641 393.02020264 C344.35048539 396.92305045 342.63701409 400.82958165 340.93994141 404.74365234 C340.61556595 405.49051804 340.29119049 406.23738373 339.95698547 407.00688171 C339.34729014 408.41239533 338.73958593 409.81877492 338.13420105 411.22615051 C336.11078287 415.88921713 336.11078287 415.88921713 335 417 C333.60856311 417.09543095 332.21231633 417.12188575 330.81761169 417.12025452 C329.91592255 417.12162918 329.0142334 417.12300385 328.08522034 417.12442017 C327.08828659 417.12082489 326.09135284 417.11722961 325.06420898 417.11352539 C324.02043091 417.11367142 322.97665283 417.11381744 321.90124512 417.1139679 C318.43284057 417.11326826 314.96448897 417.10547353 311.49609375 417.09765625 C309.09855682 417.09579225 306.7010195 417.09436826 304.30348206 417.09336853 C297.97904416 417.08954194 291.65462906 417.07971046 285.3302002 417.06866455 C278.88224598 417.05845345 272.43428809 417.05387156 265.98632812 417.04882812 C253.324209 417.03808832 240.66210571 417.02120119 228 417 C225.32647972 410.9874109 222.65331225 404.97466502 219.98036194 398.96182251 C219.075755 396.92699846 218.17107453 394.8922071 217.26631165 392.85745239 C208.59954907 373.36620201 199.97329249 353.85720812 191.35888672 334.34277344 C188.99166389 328.98063185 186.6230008 323.61912735 184.25390625 318.2578125 C183.86096878 317.36858597 183.46803131 316.47935944 183.06318665 315.56318665 C181.48561363 311.99318784 179.90798381 308.42321414 178.33035278 304.85324097 C174.21084086 295.5312132 170.0919102 286.20893035 165.97564697 276.88546753 C164.20300306 272.87047724 162.43000714 268.85564245 160.65698242 264.84082031 C159.80703338 262.91593097 158.95725927 260.99096437 158.10766602 259.06591797 C156.93419099 256.40703447 155.7601288 253.74841099 154.5859375 251.08984375 C154.23586639 250.29621933 153.88579529 249.50259491 153.52511597 248.68492126 C151.82341541 244.81411839 151.82341541 244.81411839 150 241 C149.505 388.51 149.505 388.51 149 539 C99.83 539 50.66 539 0 539 C0 361.13 0 183.26 0 0 Z " fill="#000000" transform="translate(3435,806)"/>
<path d="M0 0 C230.12265947 0 230.12265947 0 264.75 3.875 C265.53353851 3.96059174 266.31707703 4.04618347 267.12435913 4.1343689 C318.64443334 9.7875363 367.38052079 25.86167001 408 59 C408.98355469 59.77988281 409.96710938 60.55976562 410.98046875 61.36328125 C426.23116991 73.79192617 440.5777558 87.94650568 452 104 C452.44601562 104.61762207 452.89203125 105.23524414 453.3515625 105.87158203 C497.74527784 167.61046758 511.65197545 245.65489964 499.47998047 320.18408203 C498.24595604 327.18791504 496.71998022 334.10040238 495 341 C494.75797852 341.97211426 494.51595703 342.94422852 494.26660156 343.94580078 C483.610763 385.57488437 461.86423047 424.02005854 432.49609375 455.31640625 C430.36940178 457.60284973 428.32927439 459.92987084 426.3125 462.3125 C423.52534566 465.51280898 420.56060405 468.31362296 417.31640625 471.046875 C415.63305 472.46623103 413.97756139 473.91884351 412.33984375 475.390625 C306.29645896 569.77082309 116.74847387 539 0 539 C0 361.13 0 183.26 0 0 Z M157 118 C157 217.99 157 317.98 157 421 C236.9275677 422.78148902 236.9275677 422.78148902 303 384 C303.66257812 383.39800781 304.32515625 382.79601563 305.0078125 382.17578125 C329.57424457 359.49468001 340.59969448 321.06803093 342.10728455 288.69633484 C342.16315219 286.29326615 342.19030705 283.89196303 342.203125 281.48828125 C342.21013931 280.60565109 342.21715363 279.72302094 342.22438049 278.81364441 C342.24179478 275.9798772 342.24823276 273.14631876 342.25 270.3125 C342.25067474 269.34602539 342.25134949 268.37955078 342.25204468 267.38378906 C342.2365147 253.40854764 342.01411961 239.70637372 339 226 C338.82307617 225.18821289 338.64615234 224.37642578 338.46386719 223.54003906 C333.5189724 201.66806055 325.37371344 181.40842544 311 164 C310.20207031 163.02546875 309.40414062 162.0509375 308.58203125 161.046875 C286.25838682 135.24465965 253.75940217 121.23999041 220.12353516 118.79052734 C199.12624431 117.49969633 178.00432976 118 157 118 Z " fill="#000000" transform="translate(160,812)"/>
<path d="M0 0 C1.82516144 0.00323273 1.82516144 0.00323273 3.68719482 0.00653076 C51.72855613 0.14316223 99.29724878 8.34969981 142 31.3125 C142.64743164 31.65361816 143.29486328 31.99473633 143.96191406 32.34619141 C173.55770619 47.98926519 200.46646721 71.09798483 220 98.3125 C221.14082031 99.87097656 221.14082031 99.87097656 222.3046875 101.4609375 C261.19747325 155.9646684 274.46293872 223.32402146 273 289.3125 C272.98211426 290.14620117 272.96422852 290.97990234 272.94580078 291.83886719 C271.53408834 348.49284528 259.03335779 405.79230961 227 453.3125 C226.59958496 453.9096582 226.19916992 454.50681641 225.78662109 455.12207031 C211.30172498 476.53148181 193.00981038 496.21986839 172 511.3125 C170.95972656 512.07433594 169.91945313 512.83617187 168.84765625 513.62109375 C135.7885269 537.19973112 98.06789855 551.09262244 58.125 557.625 C57.22547607 557.77227539 56.32595215 557.91955078 55.39916992 558.07128906 C37.34316832 560.79299507 19.300061 561.66346237 1.0625 561.5625 C-0.44562759 561.55784729 -0.44562759 561.55784729 -1.98422241 561.55310059 C-16.400994 561.50102194 -30.6983406 561.29330943 -45 559.3125 C-45.97485352 559.18359375 -46.94970703 559.0546875 -47.95410156 558.921875 C-96.86000302 552.30095697 -143.38284881 534.77706827 -181 502.3125 C-181.886875 501.55582031 -182.77375 500.79914063 -183.6875 500.01953125 C-196.04423774 489.18706215 -207.24663495 477.53062829 -217 464.3125 C-217.83712299 463.20564098 -218.67436192 462.09886963 -219.51171875 460.9921875 C-257.66500108 409.83227416 -271.20660623 344.72458713 -271.25 282 C-271.25067474 281.11220856 -271.25134949 280.22441711 -271.25204468 279.3097229 C-271.15866992 201.06603957 -248.93518385 126.2622115 -193.375 69.4375 C-188.18949409 64.36439668 -182.70809795 59.78241572 -177 55.3125 C-176.00355469 54.51070312 -175.00710937 53.70890625 -173.98046875 52.8828125 C-124.68307309 13.57875594 -61.84549643 -0.19688976 0 0 Z M-67 146.3125 C-67.79277344 147.03179688 -68.58554688 147.75109375 -69.40234375 148.4921875 C-89.87068607 167.55760302 -99.47070869 197.5141788 -104.875 224.125 C-105.16153442 225.53458984 -105.16153442 225.53458984 -105.45385742 226.97265625 C-108.64464454 243.92072822 -109.34889884 260.80358687 -109.31567383 278.01660156 C-109.31252325 281.41243944 -109.33604181 284.80739445 -109.36132812 288.203125 C-109.48854399 332.6040706 -100.67871105 380.65263295 -68.64453125 413.66796875 C-67.33548828 414.97701172 -67.33548828 414.97701172 -66 416.3125 C-65.26136719 417.05113281 -64.52273437 417.78976562 -63.76171875 418.55078125 C-47.66905139 433.70201286 -25.82737741 441.11030365 -4 442.3125 C-3.32324219 442.35375 -2.64648438 442.395 -1.94921875 442.4375 C21.01505222 443.12945543 45.64747997 435.56373831 63 420.3125 C63.721875 419.73242188 64.44375 419.15234375 65.1875 418.5546875 C94.64591721 394.10829266 106.59956933 351.55337363 110.25 315.0625 C114.65526536 262.87562354 112.60309284 197.31803756 77.40576172 154.93945312 C59.72181064 134.47299776 37.31987832 121.75036486 10 119.3125 C-19.75523365 117.47446433 -45.55086121 125.37050358 -67 146.3125 Z " fill="#000000" transform="translate(3103,794.6875)"/>
<path d="M0 0 C127.38 0 254.76 0 386 0 C386 39.6 386 79.2 386 120 C310.1 120 234.2 120 156 120 C156 142.77 156 165.54 156 189 C225.96 189 295.92 189 368 189 C368 228.93 368 268.86 368 310 C298.04 310 228.08 310 156 310 C156 345.97 156 381.94 156 419 C231.9 419 307.8 419 386 419 C386 458.6 386 498.2 386 539 C258.62 539 131.24 539 0 539 C0 361.13 0 183.26 0 0 Z " fill="#000000" transform="translate(1632,812)"/>
<path d="M0 0 C127.05 0 254.1 0 385 0 C385 39.6 385 79.2 385 120 C309.43 120 233.86 120 156 120 C156 142.77 156 165.54 156 189 C225.63 189 295.26 189 367 189 C367 228.93 367 268.86 367 310 C297.37 310 227.74 310 156 310 C156 345.97 156 381.94 156 419 C231.57 419 307.14 419 385 419 C385 458.6 385 498.2 385 539 C257.95 539 130.9 539 0 539 C0 361.13 0 183.26 0 0 Z " fill="#000000" transform="translate(722,812)"/>
<path d="M0 0 C157.08 0 314.16 0 476 0 C476 39.6 476 79.2 476 120 C423.53 120 371.06 120 317 120 C317 258.27 317 396.54 317 539 C265.19 539 213.38 539 160 539 C160 400.73 160 262.46 160 120 C107.2 120 54.4 120 0 120 C0 80.4 0 40.8 0 0 Z " fill="#000000" transform="translate(1122,812)"/>
</svg>
